:SAMPLES-PER-SECOND 30
:FULLY-SPECIFIED
:DEGREES
81
root  35.02528273 36.52284577 -14.72439203 11.33884716 6.899555206 3.591109276
lowerback  -8.429059982 2.284790039 2.838479757
upperback  -4.32682991 2.464380026 -4.132110119
thorax  0.5410090089 0.9771969914 -5.678860188
lowerneck  -15.60499954 -1.98774004 0.128332004
upperneck  11.91629982 -3.730439663 5.613629818
head  6.294129848 -1.399489999 1.398280144
lclavicle  0 -4.497500157e-015 -2.743230041e-014
lhumerus  -42.93420029 25.85320091 69.98680115
lradius  -0.08662036061 -6.507048965e-006 26.75270081
lwrist  4.824992743e-007 -3.790274832e-007 -31.58740044
lhand  -4.417981087e-031 -36.94029999 -10.61769962
lfingers  90 7.125020027 -90
lthumb  94.82269544 -25.45320061 101.1068052
rclavicle  0 -4.497500157e-015 -2.743230041e-014
rhumerus  35.02050018 -2.370440006 -57.09980011
rradius  -5.16745672e-007 2.214343908e-008 78.54669952
rwrist  1.380293725e-006 2.528095422e-007 -172.3760071
rhand  -1.768491735e-031 3.298160076 -7.226560116
rfingers  -90 -7.125020027 -90
rthumb  -85.16961627 -8.727737616 -60.88576951
rfemur  -14.18447685 12.37430286 14.12955379
rtibia  -1.879711866 1.639364362 22.43214417
rfoot  -1.58214736 -16.5528717 -42.23416138
rtoes  4.175026167 19.57684997 -102.2901931
lfemur  -12.32287788 -20.06869507 -18.0826149
ltibia  2.5704 2.040067673 15.62465668
lfoot  0.6662785411 -29.36922073 31.3792572
ltoes  -8.545493037 -18.15040954 -115.7510447
82
root  35.02805815 36.52186657 -14.72321308 11.35253334 7.126577377 3.654617071
lowerback  -8.420701027 2.291820049 2.843190432
upperback  -4.375030041 2.469419956 -4.119480133
thorax  0.4866259992 0.9762759805 -5.668729782
lowerneck  -15.50590038 -2.082679987 -0.00353226997
upperneck  11.89099979 -3.839189768 5.690100193
head  6.276529789 -1.454670072 1.43381989
lclavicle  0 -4.497500157e-015 -2.743230041e-014
lhumerus  -43.08150101 26.08639908 69.75959778
lradius  -0.08715349436 -6.507048965e-006 26.68840027
lwrist  4.824992743e-007 -3.790274832e-007 -31.91189957
lhand  -4.418584162e-031 -36.95069885 -10.6239996
lfingers  90 7.125020027 -90
lthumb  94.82893757 -25.45902318 101.1185748
rclavicle  0 -4.497500157e-015 -2.743230041e-014
rhumerus  36.13990021 -2.55597043 -56.77249908
rradius  -5.16745672e-007 2.214343908e-008 77.66660309
rwrist  1.380293725e-006 2.528095422e-007 -172.1779938
rhand  -1.769315638e-031 3.732569933 -7.360239983
rfingers  -90 -7.125020027 -90
rthumb  -85.13742631 -8.638182176 -60.47213211
rfemur  -14.17362785 12.32720661 14.10813141
rtibia  -1.926087618 1.652469039 22.49358368
rfoot  -1.64803946 -16.46992493 -42.40370178
rtoes  4.164349475 19.57903854 -102.2583309
lfemur  -12.29445934 -20.11710739 -18.16869545
ltibia  2.636853218 2.064133883 15.55662632
lfoot  0.6552422643 -29.40482903 31.21121979
ltoes  -8.529377266 -18.15778775 -115.699321
83
root  35.02970418 36.52089637 -14.71953655 11.3636713 7.381724834 3.710589886
lowerback  -8.415690422 2.277470112 2.817339897
upperback  -4.382740021 2.452539921 -4.107500076
thorax  0.4723240137 0.9680920243 -5.643159866
lowerneck  -15.48820019 -2.176359892 -0.02585849911
upperneck  11.8263998 -3.951169729 5.666069984
head  6.256100178 -1.513079882 1.418740034
lclavicle  0 -4.497500157e-015 -2.743230041e-014
lhumerus  -43.15840149 26.38199997 69.55750275
lradius  -0.08768443763 -6.507048965e-006 26.65299988
lwrist  4.824992743e-007 -3.790274832e-007 -32.2845993
lhand  -4.41948382e-031 -36.96620178 -10.61989975
lfingers  90 7.125020027 -90
lthumb  94.83532623 -25.45442273 101.1348166
rclavicle  0 -4.497500157e-015 -2.743230041e-014
rhumerus  37.37799835 -2.743749142 -56.41770172
rradius  -5.16745672e-007 2.214343908e-008 76.75939941
rwrist  1.380293725e-006 2.528095422e-007 -171.9049988
rhand  -1.769327453e-031 3.738430023 -7.176939964
rfingers  -90 -7.125020027 -90
rthumb  -85.04466549 -8.79805815 -60.45265659
rfemur  -14.14508915 12.24984837 14.09671688
rtibia  -1.960182905 1.669743776 22.54231453
rfoot  -1.715378046 -16.40230179 -42.57645798
rtoes  4.162008069 19.57951771 -102.2513439
lfemur  -12.20537186 -20.14097404 -18.25911331
ltibia  2.738808632 2.132183075 15.40485764
lfoot  0.6561053395 -29.491642 31.05945778
ltoes  -8.525744481 -18.15944854 -115.6876643
84
root  35.02949392 36.52006134 -14.71800166 11.36929607 7.60761261 3.748384237
lowerback  -8.438280106 2.277640343 2.795399666
upperback  -4.379570007 2.454600096 -4.112170219
thorax  0.4876199961 0.9699620008 -5.634689808
lowerneck  -15.5376997 -2.271440029 -0.06378679723
upperneck  11.82349968 -4.072390079 5.672599792
head  6.268000126 -1.571999907 1.414379954
lclavicle  0 -4.497500157e-015 -2.743230041e-014
lhumerus  -43.20399857 26.63100052 69.39779663
lradius  -0.08821317554 -6.507048965e-006 26.6386013
lwrist  4.824992743e-007 -3.790274832e-007 -32.57559967
lhand  -4.418915034e-031 -36.95640182 -10.64379978
lfingers  90 7.125020027 -90
lthumb  94.83582184 -25.47818458 101.1264837
rclavicle  0 -4.497500157e-015 -2.743230041e-014
rhumerus  38.4845047 -2.913470984 -55.83480072
rradius  -5.16745672e-007 2.214343908e-008 75.96250153
rwrist  1.380293725e-006 2.528095422e-007 -171.9160004
rhand  -1.769671453e-031 3.905169964 -6.95126009
rfingers  -90 -7.125020027 -90
rthumb  -84.89297653 -9.004335398 -60.2724102
rfemur  -14.1282959 12.12367058 14.11378288
rtibia  -1.993557215 1.680989742 22.59448242
rfoot  -1.767793417 -16.36745644 -42.67496109
rtoes  4.157502674 19.58043895 -102.2378999
lfemur  -12.14825249 -20.19411087 -18.30307961
ltibia  2.812704563 2.194538355 15.29727459
lfoot  0.6711150408 -29.57818031 30.97410965
ltoes  -8.513708097 -18.16494488 -115.64905
